<?xml version="1.0" encoding="utf-8"?>
<!-- Lifeheart letterhead variant — pill (full curve, full logo with tagline).
     Use on letterheads where a soft, distinctive shape is wanted.
     Background: brand Navy #14174C. Wordmark + tagline: white. Icon mark: gradient. -->
<svg version="1.1" xmlns="http://www.w3.org/2000/svg" xmlns:xlink="http://www.w3.org/1999/xlink"
     viewBox="0 0 1933.4 538.5" xml:space="preserve">
  <defs>
    <linearGradient id="markGrad" gradientUnits="userSpaceOnUse"
                    gradientTransform="translate(80,60)"
                    x1="142.2242" y1="134.2823" x2="431.4944" y2="424.8212">
      <stop offset="0"      stop-color="#EF5350"/>
      <stop offset="0.5106" stop-color="#B71C1C"/>
      <stop offset="1"      stop-color="#1A0000"/>
    </linearGradient>
  </defs>

  <!-- Navy pill background -->
  <rect x="0" y="0" width="1933.4" height="538.5" rx="269.25" ry="269.25" fill="#14174C"/>

  <g transform="translate(80,60)">
    <!-- Icon mark -->
    <path fill="url(#markGrad)" d="M223.5,250c-52.3-23.2,45.6-47.1,53.8-49c-71.6,30.4-37.4,40.9-3.5,48
      c33.8,7.1,137.3-1.8,77.1,58.6c-11.7,11.8-17.1,22.7-18.4,32.9c-0.1,1-0.2,1.9-0.3,2.8
      c-0.5,8.7,2.1,16.6,6.4,23.8c22.7,32.5,98,37,127.2,37.4h10.9c0.1,0,0.1,0,0.1,0c0.5,0,0.8,0,0.8,0h0.8l-14.2-6.1
      c-22.8-12.6-63.3-47.9-56.8-137.2c0.5-5.6,1-10.6,1.6-16.7c1.4-16.6,3-34.9,4.8-55.3c0.9-11,2.1-22.8,3.1-35.1
      c1.3-34.9-10.9-67.2-32-91.9c-23.4-27.7-58.1-45.8-97.2-47.8c-24.6-1.2-44.6,2.5-61.1,9.7
      c-42.7,18.9-59.9,62.6-66,110.4c-0.1,0.8-0.3,1.7-0.5,2.5v0.1c-1.8,5.7-7.1,9.7-13.3,10.1
      c-66.1,3-126.8,28-129.7,117.2c-1.3,38.4,13.6,73.9,38.7,99.4c15,15.5,33.9,27.3,55.1,34
      c-6.7-36.8,75.7-71.6,132.1-92.8C319.8,276.5,278.1,274.2,223.5,250z"/>

    <!-- Wordmark (white) -->
    <path fill="#FFFFFE" d="M668.8,317H510.4V77.1h45.5v204.3h106.2L668.8,317z"/>
    <path fill="#FFFFFE" d="M678.7,114.3c-4.9-5.1-7.4-11.2-7.4-18.5c0-7.3,2.5-13.4,7.4-18.3c4.9-4.9,10.9-7.4,18-7.4
      c7.1,0,13.2,2.5,18.3,7.4c5.2,4.9,7.8,11.1,7.8,18.3c0,7.3-2.5,13.5-7.6,18.5c-5.1,5.1-11.1,7.6-18.2,7.6
      C689.7,121.9,683.6,119.3,678.7,114.3z M674.1,317V145.9h46.2V317H674.1z"/>
    <path fill="#FFFFFE" d="M893.1,245c1.4,7.5,4,14.1,7.8,19.6c3.8,5.5,9.2,9.8,16.2,12.9c7.1,3.1,16.2,4.6,27.5,4.6
      c9.9,0,18.8-1.5,26.6-4.4c7.9-2.9,15.6-6.6,23.1-11.1l13,33.5c-4.9,4-10.5,7.6-16.7,10.9c-6.2,3.3-13.2,5.8-20.8,7.6
      c-7.6,1.8-16.4,2.6-26.3,2.6c-22.1,0-40.5-3.6-55-10.9c-14.6-7.3-25.6-17.7-33-31.2c-7.4-13.5-11.1-29.3-11.1-47.4
      c0-18.3,3.5-34.3,10.4-47.8c6.9-13.5,16.8-24,29.6-31.4c12.8-7.4,28.2-11.1,46-11.1c17.6,0,32.3,4.1,43.9,12.2
      c11.6,8.1,20.2,19,25.8,32.6c5.5,13.6,8.3,28.6,8.3,44.8V245H893.1z M965.1,214.3c-1.4-7.8-3.8-14.1-7-19
      c-3.3-4.9-7.4-8.6-12.2-11.1c-4.8-2.5-10.3-3.7-16.4-3.7c-6.1,0-11.7,1.3-16.8,3.9c-5.1,2.6-9.2,6.4-12.4,11.3
      c-3.2,4.9-5.5,11.2-6.9,18.7H965.1z"/>
    <path fill="#FFFFFE" d="M1022.6,317V71.8l45.5-3.9V317H1022.6z M1060,163.8c7.5-4.9,15.2-9.2,22.9-12.9
      c7.8-3.6,15.4-6.3,22.8-8.1c7.4-1.8,14.2-2.6,20.3-2.6c15.5,0,27.5,3.1,35.8,9.2c8.3,6.1,14.2,14.4,17.6,24.9
      c3.4,10.5,5.1,22.3,5.1,35.5v107.6H1139V211.5c0-10.8-2.3-19-6.9-24.7c-4.6-5.6-10.6-8.5-18.2-8.5
      c-5.6,0-11.3,1.1-17.1,3.2c-5.8,2.1-11,4.8-15.7,8.1c-4.7,3.3-9.1,6.4-13.1,9.2L1060,163.8z"/>
    <path fill="#FFFFFE" d="M1242.7,245c1.4,7.5,4,14.1,7.8,19.6c3.8,5.5,9.2,9.8,16.2,12.9c7.1,3.1,16.2,4.6,27.5,4.6
      c9.9,0,18.8-1.5,26.6-4.4c7.9-2.9,15.6-6.6,23.1-11.1l13,33.5c-4.9,4-10.5,7.6-16.8,10.9c-6.2,3.3-13.2,5.8-20.8,7.6
      c-7.6,1.8-16.4,2.6-26.3,2.6c-22.1,0-40.5-3.6-55-10.9c-14.6-7.3-25.6-17.7-33-31.2c-7.4-13.5-11.1-29.3-11.1-47.4
      c0-18.3,3.5-34.3,10.4-47.8c6.9-13.5,16.8-24,29.6-31.4c12.8-7.4,28.2-11.1,46-11.1c17.6,0,32.3,4.1,43.9,12.2
      c11.6,8.1,20.2,19,25.8,32.6c5.5,13.6,8.3,28.6,8.3,44.8V245H1242.7z M1314.7,214.3c-1.4-7.8-3.8-14.1-7.1-19
      c-3.3-4.9-7.4-8.6-12.2-11.1c-4.8-2.5-10.3-3.7-16.4-3.7c-6.1,0-11.7,1.3-16.8,3.9c-5.1,2.6-9.2,6.4-12.3,11.3
      c-3.2,4.9-5.5,11.2-6.9,18.7H1314.7z"/>
    <path fill="#FFFFFE" d="M1372.9,156.8c4.5-3.1,10.6-5.7,18.3-7.9c7.8-2.2,15.7-4.1,23.8-5.5c8.1-1.4,14.5-2.1,19.2-2.1
      c13.6,0,26.1,2.7,37.4,8.1c11.3,5.4,20.3,12.9,27.2,22.4c6.8,9.5,10.2,20.4,10.2,32.6V317h-30.3l-7.8-18.3
      c-6.4,6.6-13.3,12-20.8,16.2c-7.5,4.2-15.6,6.3-24.3,6.3c-20.9,0-36.5-5.1-46.6-15.3c-10.1-10.2-15.2-23.6-15.2-40
      c0-17.6,6-31.1,18-40.4c12-9.3,27.6-14,46.9-14.3h33.5v-0.4c-0.2-8.5-2.8-15.1-7.6-19.9c-4.8-4.8-11.5-7.2-19.9-7.2
      c-8,0-16.7,1.2-26.1,3.5c-9.4,2.4-17.3,4.9-23.6,7.8L1372.9,156.8z M1406.3,275c2,2.8,4.6,5.2,7.8,7.1
      c3.2,1.9,6.8,2.8,10.8,2.8c6.4,0,12.8-1.4,19.4-4.2c6.6-2.8,12.8-7.1,18.7-12.7v-26.1h-34.6
      c-8,0-14.2,2.5-18.5,7.4c-4.4,4.9-6.5,10.5-6.5,16.6C1403.3,269.1,1404.3,272.1,1406.3,275z"/>
    <path fill="#FFFFFE" d="M839.1,146.6H807v-6.7c0-9.2,1.8-16.6,5.5-22.4c3.6-5.8,9.5-8.6,17.5-8.6c2.8,0,5.8,0.4,9,1.2
      c3.2,0.8,6.4,2.1,9.7,3.7l13.4-33.5c-2.6-2.1-5.8-4-9.7-5.6c-3.9-1.6-8-2.9-12.3-3.9c-4.4-0.9-8.5-1.4-12.5-1.4
      c-13.9,0-25.8,2.6-35.6,7.8c-9.9,5.2-17.5,12.5-22.8,22c-5.3,9.5-7.9,20.9-7.9,34v13.4h-26.5l-0.4,34.6h26.8V317H807V181.1
      h32.1V146.6z"/>
    <path fill="#FFFFFE" d="M1620.9,146.2c-4.7,0.6-9.7,2-15,4.3c-7.2,3.1-14.1,6.8-20.8,11.1c-6.7,4.3-12.5,8.6-17.5,12.9
      l-15.2-28.6h-24V317h45.9V212.5c6.6-5.9,13.6-11.1,21-15.5c7.4-4.5,14.6-8,21.5-10.6c1.4-0.5,2.7-1,4.1-1.4V146.2z"/>
    <path fill="#FFFFFE" d="M1740.7,283.4c-3.1,0.7-6.1,1.1-9.2,1.1c-8.2,0-14.5-2.8-18.7-8.5c-4.2-5.6-6.3-12.9-6.3-21.9v-73h31
      v-34.6h-31v-49l-45.5,8.1v40.9H1638l-0.4,34.6h23.3v81.1c0,13.2,2.8,24.3,8.5,33.5c5.6,9.2,13.5,16.2,23.5,21
      c10,4.8,22.2,7.2,36.5,7.2c3.5,0,7.5-0.5,11.8-1.6c4.3-1.1,8.5-2.4,12.5-3.9c4-1.5,7.3-3.2,9.9-5.1l-13.4-33.2
      C1746.9,281.7,1743.7,282.7,1740.7,283.4z"/>

    <!-- Tagline (muted light) -->
    <text x="1019" y="379"
          font-family="'DM Sans', 'Helvetica Neue', Arial, sans-serif"
          font-size="40" font-weight="300" letter-spacing="0.5"
          fill="#C5C9E2">Complex support. Clear outcomes.</text>
  </g>
</svg>
